<svg width="80" height="73" viewBox="0 0 80 73" fill="none" xmlns="http://www.w3.org/2000/svg">
<path d="M0.848276 45.8586L28.1379 57.0033L13.7931 62.8609V54.0738H11.0345V71.648C11.0345 71.8706 11.0905 72.0898 11.1977 72.2861C11.3049 72.4823 11.4599 72.6496 11.6489 72.7731C11.8379 72.8965 12.0551 72.9723 12.2812 72.9937C12.5072 73.0151 12.7352 72.9815 12.9448 72.8958L39.9283 61.8754L39.8979 61.8051L67.0566 72.8958C67.2661 72.9812 67.4939 73.0146 67.7198 72.9931C67.9457 72.9715 68.1627 72.8957 68.3515 72.7723C68.5403 72.6488 68.6951 72.4817 68.8023 72.2856C68.9094 72.0894 68.9654 71.8705 68.9655 71.648V54.0738H66.2069V62.8609L51.8621 57.0033L79.1517 45.8586C79.403 45.7559 79.6176 45.5826 79.7685 45.3605C79.9195 45.1385 80 44.8776 80 44.6108V10.8143C80 10.5917 79.944 10.3725 79.8368 10.1763C79.7296 9.98001 79.5746 9.81272 79.3856 9.68927C79.1966 9.56582 78.9794 9.49003 78.7533 9.46862C78.5273 9.44721 78.2993 9.48085 78.0897 9.56656L70.3448 12.7299V1.35131C70.3445 1.1262 70.2869 0.904731 70.1772 0.706955C70.0675 0.50918 69.9092 0.341347 69.7167 0.218657C69.5241 0.0959682 69.3033 0.0222989 69.0744 0.00432223C68.8455 -0.0136544 68.6156 0.0246295 68.4055 0.115706C64.8265 1.62051 61.0942 2.74755 57.2717 3.47778C53.6028 4.09558 50.3145 2.64233 46.8276 3.91443C44.0419 4.87194 41.6468 6.68677 40 9.088C38.3535 6.68643 35.9584 4.87151 33.1724 3.91443C29.6869 2.64233 26.3917 4.09558 22.7283 3.47778C18.9058 2.7476 15.1735 1.62056 11.5945 0.115706C11.3844 0.0246295 11.1545 -0.0136544 10.9256 0.00432223C10.6967 0.0222989 10.4759 0.0959682 10.2833 0.218657C10.0908 0.341347 9.93248 0.50918 9.8228 0.706955C9.71311 0.904731 9.6555 1.1262 9.65517 1.35131V12.7204L1.90897 9.56656C1.69941 9.48114 1.47159 9.44773 1.2457 9.46927C1.01981 9.49082 0.802833 9.56667 0.614015 9.69009C0.425197 9.8135 0.270369 9.98068 0.163261 10.1768C0.0561537 10.3729 7.55971e-05 10.5919 4.80214e-09 10.8143V44.6108C-2.27064e-05 44.8776 0.0805128 45.1385 0.231463 45.3605C0.382414 45.5826 0.597028 45.7559 0.848276 45.8586ZM13.7931 69.6202V65.7891L31.7241 58.4674L36.4138 60.383L13.7931 69.6202ZM66.2069 69.6202L2.75862 43.7105V39.8793L66.2069 65.7891V69.6202ZM77.2414 43.7105L48.2759 55.5393L43.5862 53.6237L77.2414 39.8793V43.7105ZM12.4138 30.4014C15.5993 31.6312 18.8969 32.5614 22.2621 33.1795C24.0131 33.4226 25.7888 33.4416 27.5448 33.2363C29.1001 32.9829 30.6932 33.0683 32.211 33.4864C33.6615 33.9435 34.9896 34.7122 36.0985 35.7363C37.2074 36.7604 38.069 38.0142 38.6207 39.4062V43.4834L12.4138 32.782V30.4014ZM41.3793 39.4062C41.9309 38.014 42.7925 36.76 43.9014 35.7356C45.0103 34.7113 46.3384 33.9424 47.789 33.485C50.4828 32.5049 53.6924 33.8635 57.7379 33.1808C61.1031 32.5624 64.4007 31.6317 67.5862 30.4014V32.782L41.3793 43.4834V39.4062ZM47.789 6.44782C50.4828 5.46772 53.6924 6.82634 57.7379 6.14365C61.1029 5.52498 64.4005 4.59479 67.5862 3.36558V27.4909C64.2603 28.8355 60.8047 29.8487 57.2717 30.515C53.6166 31.1328 50.309 29.6795 46.8276 30.9516C44.7597 31.6797 42.894 32.8713 41.3793 34.4313V12.369C41.9309 10.9768 42.7925 9.72278 43.9014 8.69843C45.0103 7.67408 46.3384 6.90518 47.789 6.44782ZM12.4138 3.36558C15.5995 4.59479 18.8971 5.52498 22.2621 6.14365C24.0131 6.38637 25.7888 6.40546 27.5448 6.20043C29.1 5.94695 30.6931 6.03187 32.211 6.44917C33.6612 6.90602 34.9892 7.67427 36.098 8.6979C37.2069 9.72154 38.0687 10.9748 38.6207 12.3663V34.4313C37.1062 32.8711 35.2404 31.6795 33.1724 30.9516C29.7007 29.6836 26.3724 31.1301 22.7283 30.5136C19.1954 29.8482 15.7398 28.836 12.4138 27.4922V3.36558ZM2.75862 12.8394L9.65517 15.6472V33.6824C9.65515 33.9492 9.73569 34.2101 9.88664 34.4321C10.0376 34.6541 10.2522 34.8274 10.5034 34.9302L39.469 46.7589C39.6372 46.8278 39.8177 46.8633 40 46.8633C40.1823 46.8633 40.3628 46.8278 40.531 46.7589L69.4966 34.9302C69.7476 34.8275 69.9621 34.6544 70.113 34.4327C70.2639 34.2109 70.3446 33.9503 70.3448 33.6837V15.6567L77.2414 12.8408V36.9498L77.1655 36.9796L40 52.1583L2.75862 36.9498V12.8394Z" fill="#A4C3B2"/>
</svg>
